<?xml version="1.0" standalone="no"?>
<!DOCTYPE svg PUBLIC "-//W3C//DTD SVG 20010904//EN"
 "http://www.w3.org/TR/2001/REC-SVG-20010904/DTD/svg10.dtd">
<svg version="1.0" xmlns="http://www.w3.org/2000/svg"
 width="460.000000pt" height="460.000000pt" viewBox="0 0 460.000000 460.000000"
 preserveAspectRatio="xMidYMid meet">
<metadata>
Created by potrace 1.11, written by Peter Selinger 2001-2013
</metadata>
<g transform="translate(0.000000,460.000000) scale(0.100000,-0.100000)"
fill="#000000" stroke="none">
<path d="M2217 4585 c-48 -16 -42 -12 -402 -274 -170 -123 -400 -290 -510
-369 -110 -80 -231 -168 -270 -197 -64 -46 -170 -124 -220 -159 -88 -64 -415
-301 -432 -314 -12 -9 -85 -62 -162 -117 -103 -74 -148 -113 -173 -150 l-33
-50 0 -1385 c0 -1313 1 -1387 18 -1421 25 -51 70 -93 124 -119 46 -21 50 -22
727 -23 375 0 713 2 751 6 195 21 242 28 378 63 550 139 939 506 1121 1059 35
109 60 203 72 280 3 22 9 59 13 81 5 23 9 133 10 245 5 386 7 1304 4 1314 -4
11 -1116 12 -1163 1 -13 -3 -41 -8 -62 -11 -75 -12 -180 -52 -304 -118 -96
-52 -251 -215 -331 -347 -128 -214 -215 -512 -191 -653 27 -157 209 -248 352
-176 89 44 133 116 150 244 21 162 115 358 214 447 117 106 181 121 522 120
146 0 275 -1 288 -1 l23 -1 -4 -517 c-2 -285 -6 -527 -9 -538 -3 -11 -8 -38
-12 -60 -23 -138 -118 -358 -201 -470 -100 -134 -244 -255 -390 -328 -124 -62
-323 -115 -495 -133 -35 -3 -872 -7 -1072 -4 l-38 0 0 1118 1 1117 24 17 c13
10 165 120 337 245 172 124 414 300 538 390 334 243 628 455 660 478 16 11 70
50 121 88 51 37 97 67 104 67 6 0 20 -8 31 -17 11 -10 28 -22 37 -28 9 -5 142
-100 294 -209 598 -430 780 -560 823 -591 25 -17 174 -124 331 -237 l286 -205
0 -1116 0 -1117 -471 0 c-532 -1 -561 -2 -612 -26 -190 -90 -185 -371 8 -454
l53 -23 660 1 c591 0 664 1 699 16 60 25 102 61 133 114 l28 47 1 1365 c1
1525 6 1419 -70 1494 -23 23 -208 160 -411 305 -204 146 -669 479 -1035 741
-366 261 -680 482 -698 489 -45 19 -120 22 -165 6z"/>
<path d="M2185 2336 c-115 -43 -177 -130 -177 -250 0 -86 71 -186 156 -221 49
-21 139 -21 188 -1 51 22 105 71 131 120 31 59 30 165 -1 224 -43 83 -118 131
-210 136 -31 2 -70 -2 -87 -8z"/>
</g>
</svg>
